# File created by Blade
# Date/Time:  Fri Jan 16 17:25:22 2015
# Frame Rate: 120.000 fps
#------------------------------------------------------
:FULLY-SPECIFIED
:DEGREES
1240
root -5.813559 35.229953 -10.266483 -1.803520 -9.010383 -6.137834
Spine 1.235244 2.104254 9.788719
Head 1.635225 6.776553 -7.358987
LeftShoulder -20.311255 15.401232 -15.717445
LeftArm 23.200369 6.669100 -63.613809
LeftForeArm 20.383890 -0.000000 19.695372
LeftHand 1.843958 -0.000000 -11.645498
LeftHandThumb1 -26.253704 0.000000 33.147579
RightShoulder -1.889331 -2.476716 0.415942
RightArm 5.607619 -22.353535 64.365480
RightForeArm -25.455057 -0.000000 24.825065
RightHand 2.558711 -0.000000 8.117609
RightHandThumb1 -24.326973 -0.000000 -32.862282
LeftUpLeg 12.368524 16.925199 8.178594
LeftLeg -9.151176 -0.000000 0.000000
LeftFoot -15.338563 29.211525 -8.076483
LeftToeBase 22.938781 -0.000000 -0.000000
RightUpLeg 7.884468 -4.236579 2.954325
RightLeg -4.467119 -0.000000 0.000000
RightFoot -3.996908 -22.946936 5.552151
RightToeBase 13.646678 -0.000000 -0.000000
1241
root -5.814230 35.229354 -10.264337 -1.806771 -8.995163 -6.143209
Spine 1.239049 2.087882 9.793346
Head 1.666118 6.781920 -7.344689
LeftShoulder -20.350508 15.456118 -15.592060
LeftArm 23.277730 5.929788 -63.031507
LeftForeArm 20.504319 -0.000000 19.445912
LeftHand 1.719460 0.000000 -11.904306
LeftHandThumb1 -26.253704 0.000000 33.147579
RightShoulder -1.972380 -2.380793 0.301113
RightArm 5.509125 -22.044885 63.632964
RightForeArm -25.383647 -0.000000 24.582488
RightHand 2.261136 -0.000000 8.096252
RightHandThumb1 -24.326973 -0.000000 -32.862282
LeftUpLeg 12.377750 16.912449 8.185911
LeftLeg -9.160025 -0.000000 0.000000
LeftFoot -15.332497 29.194959 -8.103438
LeftToeBase 22.865617 -0.000000 -0.000000
RightUpLeg 7.886955 -4.236531 2.960550
RightLeg -4.452968 -0.000000 0.000000
RightFoot -4.014770 -22.957755 5.573355
RightToeBase 13.632393 -0.000000 -0.000000
1242
root -5.816983 35.228819 -10.260459 -1.830280 -8.986468 -6.149709
Spine 1.267784 2.087464 9.791832
Head 1.700916 6.797054 -7.305641
LeftShoulder -20.369902 15.491695 -15.425036
LeftArm 23.309409 5.158921 -62.461918
LeftForeArm 20.679832 -0.000000 19.171886
LeftHand 1.593321 -0.000000 -12.170196
LeftHandThumb1 -26.253704 0.000000 33.147579
RightShoulder -2.051270 -2.262011 0.216390
RightArm 5.356698 -21.516073 62.879980
RightForeArm -25.397539 -0.000000 24.332377
RightHand 2.210608 -0.000000 8.070208
RightHandThumb1 -24.326973 -0.000000 -32.862282
LeftUpLeg 12.406404 16.867816 8.200763
LeftLeg -9.153617 -0.000000 0.000000
LeftFoot -15.357198 29.232058 -8.091654
LeftToeBase 22.917489 -0.000000 -0.000000
RightUpLeg 7.912823 -4.230614 2.970300
RightLeg -4.439912 -0.000000 0.000000
RightFoot -4.035650 -22.977424 5.578753
RightToeBase 13.625551 -0.000000 -0.000000
1243
root -5.813990 35.227274 -10.254968 -1.844472 -8.944977 -6.146634
Spine 1.272593 2.051469 9.793630
Head 1.742041 6.809258 -7.278102
LeftShoulder -20.410425 15.535293 -15.259731
LeftArm 23.356412 4.225485 -61.952400
LeftForeArm 20.801771 0.000000 18.824782
LeftHand 1.509463 -0.000000 -12.305232
LeftHandThumb1 -26.253704 0.000000 33.147579
RightShoulder -2.179404 -2.173298 0.065154
RightArm 5.323547 -21.610124 61.968896
RightForeArm -24.800867 -0.000000 24.053316
RightHand 2.006423 0.000000 7.820836
RightHandThumb1 -24.326973 -0.000000 -32.862282
LeftUpLeg 12.435150 16.880019 8.201911
LeftLeg -9.192405 -0.000000 0.000000
LeftFoot -15.326019 29.181212 -8.068718
LeftToeBase 22.902894 -0.000000 -0.000000
RightUpLeg 7.937858 -4.270515 2.958105
RightLeg -4.440484 -0.000000 0.000000
RightFoot -4.039730 -22.971647 5.546421
RightToeBase 13.608969 -0.000000 -0.000000
1244
root -5.814958 35.226027 -10.254082 -1.832498 -8.911716 -6.160860
Spine 1.265056 2.029871 9.819886
Head 1.767060 6.864221 -7.271833
LeftShoulder -20.437317 15.564226 -15.106818
LeftArm 23.375279 3.221374 -61.414143
LeftForeArm 20.964245 -0.000000 18.483745
LeftHand 1.468563 -0.000000 -12.081857
LeftHandThumb1 -26.253704 0.000000 33.147579
RightShoulder -2.276982 -2.029738 -0.087471
RightArm 5.167596 -21.158438 61.165793
RightForeArm -24.664727 -0.000000 23.771365
RightHand 1.985371 -0.000000 7.959942
RightHandThumb1 -24.326973 -0.000000 -32.862282
LeftUpLeg 12.407269 16.782801 8.204555
LeftLeg -9.175940 -0.000000 0.000000
LeftFoot -15.371506 29.248543 -8.036601
LeftToeBase 23.013683 -0.000000 -0.000000
RightUpLeg 7.924088 -4.292853 2.975104
RightLeg -4.423712 -0.000000 0.000000
RightFoot -4.061256 -22.984752 5.542669
RightToeBase 13.639776 -0.000000 -0.000000
1245
root -5.813256 35.225738 -10.244313 -1.891067 -8.903255 -6.147915
Spine 1.306558 2.022475 9.782930
Head 1.849171 6.874465 -7.171867
LeftShoulder -20.448190 15.630537 -14.892083
LeftArm 23.680825 1.753056 -61.028719
LeftForeArm 21.438430 -0.000000 17.450165
LeftHand 2.020134 -0.000000 -12.554518
LeftHandThumb1 -26.253704 0.000000 33.147579
RightShoulder -2.328835 -1.913432 -0.206393
RightArm 4.962839 -20.455799 60.381816
RightForeArm -24.679541 -0.000000 23.447927
RightHand 2.004812 -0.000000 8.118515
RightHandThumb1 -24.326973 -0.000000 -32.862282
LeftUpLeg 12.492192 16.712026 8.194316
LeftLeg -9.193006 -0.000000 0.000000
LeftFoot -15.376555 29.297357 -8.088717
LeftToeBase 22.924951 -0.000000 -0.000000
RightUpLeg 8.004437 -4.283931 2.950627
RightLeg -4.435437 -0.000000 0.000000
RightFoot -4.074058 -22.987587 5.584503
RightToeBase 13.568079 -0.000000 -0.000000
1246
root -5.813208 35.225150 -10.242205 -1.888618 -8.868770 -6.157902
Spine 1.307756 1.996328 9.835670
Head 1.879759 6.895978 -7.260318
LeftShoulder -20.458387 15.676030 -14.756870
LeftArm 23.652599 0.670553 -60.425431
LeftForeArm 21.358754 -0.000000 17.157934
LeftHand 1.857269 -0.000000 -11.975863
LeftHandThumb1 -26.253704 0.000000 33.147579
RightShoulder -2.345171 -1.694229 -0.463366
RightArm 4.648833 -19.526659 59.640325
RightForeArm -24.895663 -0.000000 23.126029
RightHand 2.220449 -0.000000 8.850916
RightHandThumb1 -24.326973 -0.000000 -32.862282
LeftUpLeg 12.500009 16.785370 8.217140
LeftLeg -9.228137 -0.000000 0.000000
LeftFoot -15.324701 29.197662 -8.063467
LeftToeBase 22.867332 -0.000000 -0.000000
RightUpLeg 8.006628 -4.300394 2.962036
RightLeg -4.431808 -0.000000 0.000000
RightFoot -4.079498 -23.007389 5.624003
RightToeBase 13.525954 -0.000000 -0.000000
